<svg xmlns="http://www.w3.org/2000/svg" viewBox="0 0 701 170.95"><defs><style>.cls-1{fill:none;}.cls-2{fill:#e50914;}</style></defs><title>Ativo 2</title><g id="Camada_2" data-name="Camada 2"><g id="Camada_1-2" data-name="Camada 1"><path class="cls-1" d="M487.88,28.21q-4.11-4.35-11.38-4.36t-11.38,4.36Q461,32.58,461,40.56v92.52q0,8,4.12,12.35t11.38,4.36q7.26,0,11.38-4.36T492,133.08V40.56Q492,32.58,487.88,28.21Z"/><path class="cls-1" d="M552,166.88q16.59,1,33.07,2.19L552,63.43Z"/><polygon class="cls-2" points="86 170.95 86 2.95 61 2.95 61 115.75 28.55 2.95 0 2.95 0 170.95 25 170.95 25 63.43 58.65 170.95 86 170.95"/><path class="cls-2" d="M171,147H124V98h37V74H124V27h47V3H99V171h6q33.18-2.65,66-4.58Z"/><path class="cls-2" d="M230,27h28V3H177V27h28v137.6q12.52-.62,25-1.12Z"/><path class="cls-2" d="M344,132.74V109H318v23.79q0,7.14-4,11.42a14.92,14.92,0,0,1-20.92,0q-4.05-4.29-4-11.42V40.45q0-7.14,4-11.42A14.92,14.92,0,0,1,314,29q4,4.27,4,11.42V60h26V40.45q0-17.61-11.08-28.55T304,1Q286.17,1,275.08,11.9T264,40.45v92.29q0,17.61,11.08,28.54c.23.23.47.44.7.65q28.85-.74,57.43-1Q344,150.1,344,132.74Z"/><path class="cls-2" d="M428,161.69V147H383V3H357v158Q392.73,160.9,428,161.69Z"/><path class="cls-2" d="M506.66,162.43Q518,151.21,518,132.89V40.76q0-18.33-11.34-29.55T477,0q-18.33,0-29.66,11.21T436,40.76v92.13q0,18.12,11.08,29.28,28.92.83,57.5,2.16C505.29,163.72,506,163.1,506.66,162.43Zm-18.78-17q-4.11,4.37-11.38,4.36t-11.38-4.36Q461,141.08,461,133.08V40.56q0-8,4.12-12.35t11.38-4.36q7.26,0,11.38,4.36T492,40.56v92.52Q492,141.07,487.88,145.43Z"/><path class="cls-2" d="M552,63.43l33.07,105.64q12.57.9,25.09,1.88H613V3H588v112.8L555.55,3H527V165.44q12.54.67,25,1.44Z"/><polygon class="cls-2" points="701 26.95 701 2.95 628 2.95 628 170.95 701 170.95 701 146.95 654 146.95 654 97.95 691 97.95 691 73.95 654 73.95 654 26.95 701 26.95"/></g></g></svg>